%TF.GenerationSoftware,KiCad,Pcbnew,8.0.8*%
%TF.CreationDate,2025-02-08T14:15:15-05:00*%
%TF.ProjectId,Project_PCB_Subsystem,50726f6a-6563-4745-9f50-43425f537562,rev?*%
%TF.SameCoordinates,Original*%
%TF.FileFunction,Legend,Bot*%
%TF.FilePolarity,Positive*%
%FSLAX46Y46*%
G04 Gerber Fmt 4.6, Leading zero omitted, Abs format (unit mm)*
G04 Created by KiCad (PCBNEW 8.0.8) date 2025-02-08 14:15:15*
%MOMM*%
%LPD*%
G01*
G04 APERTURE LIST*
%ADD10C,0.150000*%
%ADD11C,0.120000*%
G04 APERTURE END LIST*
D10*
X145454819Y-71214286D02*
X144454819Y-71214286D01*
X144454819Y-71214286D02*
X145169104Y-71547619D01*
X145169104Y-71547619D02*
X144454819Y-71880952D01*
X144454819Y-71880952D02*
X145454819Y-71880952D01*
X145407200Y-72309524D02*
X145454819Y-72452381D01*
X145454819Y-72452381D02*
X145454819Y-72690476D01*
X145454819Y-72690476D02*
X145407200Y-72785714D01*
X145407200Y-72785714D02*
X145359580Y-72833333D01*
X145359580Y-72833333D02*
X145264342Y-72880952D01*
X145264342Y-72880952D02*
X145169104Y-72880952D01*
X145169104Y-72880952D02*
X145073866Y-72833333D01*
X145073866Y-72833333D02*
X145026247Y-72785714D01*
X145026247Y-72785714D02*
X144978628Y-72690476D01*
X144978628Y-72690476D02*
X144931009Y-72500000D01*
X144931009Y-72500000D02*
X144883390Y-72404762D01*
X144883390Y-72404762D02*
X144835771Y-72357143D01*
X144835771Y-72357143D02*
X144740533Y-72309524D01*
X144740533Y-72309524D02*
X144645295Y-72309524D01*
X144645295Y-72309524D02*
X144550057Y-72357143D01*
X144550057Y-72357143D02*
X144502438Y-72404762D01*
X144502438Y-72404762D02*
X144454819Y-72500000D01*
X144454819Y-72500000D02*
X144454819Y-72738095D01*
X144454819Y-72738095D02*
X144502438Y-72880952D01*
X144550057Y-73261905D02*
X144502438Y-73309524D01*
X144502438Y-73309524D02*
X144454819Y-73404762D01*
X144454819Y-73404762D02*
X144454819Y-73642857D01*
X144454819Y-73642857D02*
X144502438Y-73738095D01*
X144502438Y-73738095D02*
X144550057Y-73785714D01*
X144550057Y-73785714D02*
X144645295Y-73833333D01*
X144645295Y-73833333D02*
X144740533Y-73833333D01*
X144740533Y-73833333D02*
X144883390Y-73785714D01*
X144883390Y-73785714D02*
X145454819Y-73214286D01*
X145454819Y-73214286D02*
X145454819Y-73833333D01*
X145454819Y-116214286D02*
X144454819Y-116214286D01*
X144454819Y-116214286D02*
X145169104Y-116547619D01*
X145169104Y-116547619D02*
X144454819Y-116880952D01*
X144454819Y-116880952D02*
X145454819Y-116880952D01*
X145407200Y-117309524D02*
X145454819Y-117452381D01*
X145454819Y-117452381D02*
X145454819Y-117690476D01*
X145454819Y-117690476D02*
X145407200Y-117785714D01*
X145407200Y-117785714D02*
X145359580Y-117833333D01*
X145359580Y-117833333D02*
X145264342Y-117880952D01*
X145264342Y-117880952D02*
X145169104Y-117880952D01*
X145169104Y-117880952D02*
X145073866Y-117833333D01*
X145073866Y-117833333D02*
X145026247Y-117785714D01*
X145026247Y-117785714D02*
X144978628Y-117690476D01*
X144978628Y-117690476D02*
X144931009Y-117500000D01*
X144931009Y-117500000D02*
X144883390Y-117404762D01*
X144883390Y-117404762D02*
X144835771Y-117357143D01*
X144835771Y-117357143D02*
X144740533Y-117309524D01*
X144740533Y-117309524D02*
X144645295Y-117309524D01*
X144645295Y-117309524D02*
X144550057Y-117357143D01*
X144550057Y-117357143D02*
X144502438Y-117404762D01*
X144502438Y-117404762D02*
X144454819Y-117500000D01*
X144454819Y-117500000D02*
X144454819Y-117738095D01*
X144454819Y-117738095D02*
X144502438Y-117880952D01*
X145454819Y-118833333D02*
X145454819Y-118261905D01*
X145454819Y-118547619D02*
X144454819Y-118547619D01*
X144454819Y-118547619D02*
X144597676Y-118452381D01*
X144597676Y-118452381D02*
X144692914Y-118357143D01*
X144692914Y-118357143D02*
X144740533Y-118261905D01*
X202907200Y-128238095D02*
X202954819Y-128380952D01*
X202954819Y-128380952D02*
X202954819Y-128619047D01*
X202954819Y-128619047D02*
X202907200Y-128714285D01*
X202907200Y-128714285D02*
X202859580Y-128761904D01*
X202859580Y-128761904D02*
X202764342Y-128809523D01*
X202764342Y-128809523D02*
X202669104Y-128809523D01*
X202669104Y-128809523D02*
X202573866Y-128761904D01*
X202573866Y-128761904D02*
X202526247Y-128714285D01*
X202526247Y-128714285D02*
X202478628Y-128619047D01*
X202478628Y-128619047D02*
X202431009Y-128428571D01*
X202431009Y-128428571D02*
X202383390Y-128333333D01*
X202383390Y-128333333D02*
X202335771Y-128285714D01*
X202335771Y-128285714D02*
X202240533Y-128238095D01*
X202240533Y-128238095D02*
X202145295Y-128238095D01*
X202145295Y-128238095D02*
X202050057Y-128285714D01*
X202050057Y-128285714D02*
X202002438Y-128333333D01*
X202002438Y-128333333D02*
X201954819Y-128428571D01*
X201954819Y-128428571D02*
X201954819Y-128666666D01*
X201954819Y-128666666D02*
X202002438Y-128809523D01*
X202954819Y-129238095D02*
X201954819Y-129238095D01*
X201954819Y-129238095D02*
X201954819Y-129619047D01*
X201954819Y-129619047D02*
X202002438Y-129714285D01*
X202002438Y-129714285D02*
X202050057Y-129761904D01*
X202050057Y-129761904D02*
X202145295Y-129809523D01*
X202145295Y-129809523D02*
X202288152Y-129809523D01*
X202288152Y-129809523D02*
X202383390Y-129761904D01*
X202383390Y-129761904D02*
X202431009Y-129714285D01*
X202431009Y-129714285D02*
X202478628Y-129619047D01*
X202478628Y-129619047D02*
X202478628Y-129238095D01*
X202954819Y-130238095D02*
X201954819Y-130238095D01*
X202954819Y-130809523D02*
X202383390Y-130380952D01*
X201954819Y-130809523D02*
X202526247Y-130238095D01*
X202954819Y-131761904D02*
X202954819Y-131190476D01*
X202954819Y-131476190D02*
X201954819Y-131476190D01*
X201954819Y-131476190D02*
X202097676Y-131380952D01*
X202097676Y-131380952D02*
X202192914Y-131285714D01*
X202192914Y-131285714D02*
X202240533Y-131190476D01*
D11*
%TO.C,MS2*%
X134000000Y-51250000D02*
X134000000Y-93750000D01*
X134000000Y-93750000D02*
X144000000Y-93750000D01*
X144000000Y-51250000D02*
X134000000Y-51250000D01*
X144000000Y-93750000D02*
X144000000Y-51250000D01*
%TO.C,MS1*%
X134000000Y-96250000D02*
X134000000Y-138750000D01*
X134000000Y-138750000D02*
X144000000Y-138750000D01*
X144000000Y-96250000D02*
X134000000Y-96250000D01*
X144000000Y-138750000D02*
X144000000Y-96250000D01*
%TO.C,SPK1*%
X194900000Y-135450000D02*
X194900000Y-136450000D01*
X194900000Y-136450000D02*
X195900000Y-136450000D01*
X195400000Y-134400000D02*
X195400000Y-125600000D01*
X197450000Y-123900000D02*
X201600000Y-123900000D01*
X201600000Y-123900000D02*
X201600000Y-136100000D01*
X201600000Y-136100000D02*
X197450000Y-136100000D01*
%TD*%
M02*
