M48
; DRILL file {KiCad 8.0.8} date 2025-02-08T14:05:39-0500
; FORMAT={-:-/ absolute / inch / decimal}
; #@! TF.CreationDate,2025-02-08T14:05:39-05:00
; #@! TF.GenerationSoftware,Kicad,Pcbnew,8.0.8
; #@! TF.FileFunction,Plated,1,2,PTH
FMAT,2
INCH
; #@! TA.AperFunction,Plated,PTH,ViaDrill
T1C0.0118
; #@! TA.AperFunction,Plated,PTH,ComponentDrill
T2C0.0299
; #@! TA.AperFunction,Plated,PTH,ComponentDrill
T3C0.0315
; #@! TA.AperFunction,Plated,PTH,ComponentDrill
T4C0.0512
; #@! TA.AperFunction,Plated,PTH,ComponentDrill
T5C0.0520
%
G90
G05
T1
X6.2146Y-5.3307
X6.4375Y-3.1174
X6.6024Y-4.685
X6.6339Y-4.4882
X6.6654Y-4.2913
X6.6969Y-3.9709
X6.7615Y-3.0858
X6.7972Y-3.0484
X6.8228Y-3.8976
X6.8301Y-3.171
X6.8305Y-3.3158
X6.8938Y-3.4371
X6.9018Y-3.3071
X6.9026Y-3.1456
X6.9031Y-3.3491
X7.0633Y-3.1315
X7.0768Y-4.9055
X7.6944Y-2.2047
X7.6944Y-3.171
X7.7181Y-2.0079
X7.729Y-3.1473
X7.9245Y-4.9055
T2
X6.122Y-1.6292
X6.122Y-1.9284
T3
X7.2244Y-1.33
X7.2244Y-1.9284
T4
X7.8346Y-3.3071
X7.8346Y-3.5039
X7.8346Y-3.7008
X7.8346Y-3.8976
X7.8346Y-4.0945
X7.8346Y-4.2913
X7.8346Y-4.4882
X7.8346Y-4.685
T5
X7.8346Y-1.6142
X7.8346Y-1.811
X7.8346Y-2.0079
X7.8346Y-2.2047
X7.8346Y-2.4606
X7.8346Y-2.6575
X7.8346Y-2.8543
X7.8346Y-3.0512
M30
