%TF.GenerationSoftware,KiCad,Pcbnew,8.0.8*%
%TF.CreationDate,2025-02-08T14:15:15-05:00*%
%TF.ProjectId,Project_PCB_Subsystem,50726f6a-6563-4745-9f50-43425f537562,rev?*%
%TF.SameCoordinates,Original*%
%TF.FileFunction,Copper,L2,Bot*%
%TF.FilePolarity,Positive*%
%FSLAX46Y46*%
G04 Gerber Fmt 4.6, Leading zero omitted, Abs format (unit mm)*
G04 Created by KiCad (PCBNEW 8.0.8) date 2025-02-08 14:15:15*
%MOMM*%
%LPD*%
G01*
G04 APERTURE LIST*
G04 Aperture macros list*
%AMRoundRect*
0 Rectangle with rounded corners*
0 $1 Rounding radius*
0 $2 $3 $4 $5 $6 $7 $8 $9 X,Y pos of 4 corners*
0 Add a 4 corners polygon primitive as box body*
4,1,4,$2,$3,$4,$5,$6,$7,$8,$9,$2,$3,0*
0 Add four circle primitives for the rounded corners*
1,1,$1+$1,$2,$3*
1,1,$1+$1,$4,$5*
1,1,$1+$1,$6,$7*
1,1,$1+$1,$8,$9*
0 Add four rect primitives between the rounded corners*
20,1,$1+$1,$2,$3,$4,$5,0*
20,1,$1+$1,$4,$5,$6,$7,0*
20,1,$1+$1,$6,$7,$8,$9,0*
20,1,$1+$1,$8,$9,$2,$3,0*%
G04 Aperture macros list end*
%TA.AperFunction,ComponentPad*%
%ADD10RoundRect,0.250001X1.149999X-1.149999X1.149999X1.149999X-1.149999X1.149999X-1.149999X-1.149999X0*%
%TD*%
%TA.AperFunction,ComponentPad*%
%ADD11C,2.800000*%
%TD*%
%TA.AperFunction,ComponentPad*%
%ADD12R,3.960000X1.980000*%
%TD*%
%TA.AperFunction,ComponentPad*%
%ADD13O,3.960000X1.980000*%
%TD*%
%TA.AperFunction,ComponentPad*%
%ADD14R,2.300000X2.000000*%
%TD*%
%TA.AperFunction,ComponentPad*%
%ADD15C,2.300000*%
%TD*%
%TA.AperFunction,SMDPad,CuDef*%
%ADD16R,2.000000X1.500000*%
%TD*%
%TA.AperFunction,ViaPad*%
%ADD17C,0.600000*%
%TD*%
%TA.AperFunction,Conductor*%
%ADD18C,0.200000*%
%TD*%
G04 APERTURE END LIST*
D10*
%TO.P,KS1,1,Pin_1*%
%TO.N,Net-(KS1-Pin_1)*%
X199000000Y-119000000D03*
D11*
%TO.P,KS1,2,Pin_2*%
%TO.N,Net-(KS1-Pin_2)*%
X199000000Y-114000000D03*
%TO.P,KS1,3,Pin_3*%
%TO.N,Net-(KS1-Pin_3)*%
X199000000Y-109000000D03*
%TO.P,KS1,4,Pin_4*%
%TO.N,Net-(KS1-Pin_4)*%
X199000000Y-104000000D03*
%TO.P,KS1,5,Pin_5*%
%TO.N,Net-(KS1-Pin_5)*%
X199000000Y-99000000D03*
%TO.P,KS1,6,Pin_6*%
%TO.N,Net-(KS1-Pin_6)*%
X199000000Y-94000000D03*
%TO.P,KS1,7,Pin_7*%
%TO.N,Net-(KS1-Pin_7)*%
X199000000Y-89000000D03*
%TO.P,KS1,8,Pin_8*%
%TO.N,Net-(KS1-Pin_8)*%
X199000000Y-84000000D03*
%TD*%
D12*
%TO.P,LS1,1,Pin_1*%
%TO.N,GND*%
X199000000Y-41000000D03*
D13*
%TO.P,LS1,2,Pin_2*%
%TO.N,VCC*%
X199000000Y-46000000D03*
%TO.P,LS1,3,Pin_3*%
%TO.N,Net-(LS1-Pin_3)*%
X199000000Y-51000000D03*
%TO.P,LS1,4,Pin_4*%
%TO.N,Net-(LS1-Pin_4)*%
X199000000Y-56000000D03*
%TD*%
D14*
%TO.P,PS1,1,AC/N*%
%TO.N,GND*%
X183500000Y-48982500D03*
D15*
%TO.P,PS1,2,AC/L*%
%TO.N,AC*%
X183500000Y-33782500D03*
%TO.P,PS1,3,-Vo*%
%TO.N,GND*%
X155500000Y-48982500D03*
%TO.P,PS1,4,+Vo*%
%TO.N,VCC*%
X155500000Y-41382500D03*
%TD*%
D12*
%TO.P,US1,1,Pin_1*%
%TO.N,Net-(U1-IO9)*%
X199000000Y-62500000D03*
D13*
%TO.P,US1,2,Pin_2*%
%TO.N,Net-(U1-IO8)*%
X199000000Y-67500000D03*
%TO.P,US1,3,Pin_3*%
%TO.N,VCC*%
X199000000Y-72500000D03*
%TO.P,US1,4,Pin_4*%
%TO.N,GND*%
X199000000Y-77500000D03*
%TD*%
D16*
%TO.P,SPK1,1,1*%
%TO.N,Net-(RV1-Pad1)*%
X196200000Y-135400000D03*
%TO.P,SPK1,2,2*%
%TO.N,VCC*%
X196200000Y-124600000D03*
%TD*%
D17*
%TO.N,GND*%
X175101700Y-87302600D03*
X179407900Y-79540500D03*
%TO.N,VCC*%
X201281700Y-124600000D03*
X179750000Y-124600000D03*
X163512700Y-79182200D03*
%TO.N,Net-(KS1-Pin_1)*%
X167700000Y-119000000D03*
%TO.N,Net-(KS1-Pin_8)*%
X175306200Y-84000000D03*
%TO.N,Net-(KS1-Pin_3)*%
X169300000Y-109000000D03*
%TO.N,Net-(KS1-Pin_4)*%
X170100000Y-100860600D03*
%TO.N,Net-(KS1-Pin_5)*%
X173300000Y-99000000D03*
%TO.N,Net-(KS1-Pin_6)*%
X175339100Y-85066400D03*
%TO.N,Net-(KS1-Pin_2)*%
X168500000Y-114000000D03*
%TO.N,Net-(KS1-Pin_7)*%
X173495400Y-84220600D03*
%TO.N,Net-(LS1-Pin_4)*%
X195437300Y-80543900D03*
X195437300Y-56000000D03*
X173484300Y-80543900D03*
%TO.N,Net-(LS1-Pin_3)*%
X196038700Y-51000000D03*
X196316600Y-79942200D03*
X175327100Y-79898100D03*
%TO.N,Net-(RV1-Pad1)*%
X157850000Y-135400000D03*
%TO.N,Net-(U1-IO9)*%
X172650000Y-77429800D03*
%TO.N,Net-(U1-IO8)*%
X171741100Y-78378800D03*
%TD*%
D18*
%TO.N,GND*%
X174629100Y-79680200D02*
X173477400Y-79680200D01*
X194677800Y-79540500D02*
X179407900Y-79540500D01*
X183500000Y-48982500D02*
X198896100Y-48982500D01*
X179139200Y-79271800D02*
X175037500Y-79271800D01*
X201281700Y-46596900D02*
X201281700Y-41000000D01*
X198896100Y-48982500D02*
X201281700Y-46596900D01*
X199000000Y-77500000D02*
X196718300Y-77500000D01*
X155500000Y-48982500D02*
X183500000Y-48982500D01*
X173477400Y-79680200D02*
X172842500Y-80315100D01*
X175037500Y-79271800D02*
X174629100Y-79680200D01*
X199000000Y-41000000D02*
X201281700Y-41000000D01*
X172842500Y-80315100D02*
X172842500Y-85043400D01*
X196718300Y-77500000D02*
X194677800Y-79540500D01*
X179407900Y-79540500D02*
X179139200Y-79271800D01*
X172842500Y-85043400D02*
X175101700Y-87302600D01*
%TO.N,VCC*%
X197501700Y-124600000D02*
X201281700Y-124600000D01*
X174358900Y-79182200D02*
X163512700Y-79182200D01*
X199000000Y-46000000D02*
X160117500Y-46000000D01*
X196200000Y-124600000D02*
X197501700Y-124600000D01*
X160117500Y-46000000D02*
X155500000Y-41382500D01*
X196718300Y-72500000D02*
X190437800Y-78780500D01*
X190437800Y-78780500D02*
X174760600Y-78780500D01*
X179750000Y-124600000D02*
X196200000Y-124600000D01*
X199000000Y-72500000D02*
X196718300Y-72500000D01*
X174760600Y-78780500D02*
X174358900Y-79182200D01*
%TO.N,Net-(KS1-Pin_1)*%
X199000000Y-119000000D02*
X167700000Y-119000000D01*
%TO.N,Net-(KS1-Pin_8)*%
X199000000Y-84000000D02*
X175306200Y-84000000D01*
%TO.N,Net-(KS1-Pin_3)*%
X199000000Y-109000000D02*
X169300000Y-109000000D01*
%TO.N,Net-(KS1-Pin_4)*%
X195860600Y-100860600D02*
X170100000Y-100860600D01*
X199000000Y-104000000D02*
X195860600Y-100860600D01*
%TO.N,Net-(KS1-Pin_5)*%
X199000000Y-99000000D02*
X173300000Y-99000000D01*
%TO.N,Net-(KS1-Pin_6)*%
X200702000Y-88206000D02*
X197562400Y-85066400D01*
X200702000Y-92298000D02*
X200702000Y-88206000D01*
X199000000Y-94000000D02*
X200702000Y-92298000D01*
X197562400Y-85066400D02*
X175339100Y-85066400D01*
%TO.N,Net-(KS1-Pin_2)*%
X199000000Y-114000000D02*
X168500000Y-114000000D01*
%TO.N,Net-(KS1-Pin_7)*%
X199000000Y-89000000D02*
X178274800Y-89000000D01*
X178274800Y-89000000D02*
X173495400Y-84220600D01*
%TO.N,Net-(LS1-Pin_4)*%
X195437300Y-80543900D02*
X173484300Y-80543900D01*
X199000000Y-56000000D02*
X196718300Y-56000000D01*
X196718300Y-56000000D02*
X195437300Y-56000000D01*
%TO.N,Net-(LS1-Pin_3)*%
X175327100Y-79898100D02*
X175571200Y-80142200D01*
X179859500Y-79942200D02*
X196316600Y-79942200D01*
X179659500Y-80142200D02*
X179859500Y-79942200D01*
X175571200Y-80142200D02*
X179659500Y-80142200D01*
X199000000Y-51000000D02*
X196038700Y-51000000D01*
%TO.N,Net-(RV1-Pad1)*%
X196200000Y-135400000D02*
X157850000Y-135400000D01*
%TO.N,Net-(U1-IO9)*%
X173869100Y-76210700D02*
X172650000Y-77429800D01*
X196718300Y-62500000D02*
X191088400Y-68129900D01*
X199000000Y-62500000D02*
X196718300Y-62500000D01*
X191088400Y-74922200D02*
X189799900Y-76210700D01*
X189799900Y-76210700D02*
X173869100Y-76210700D01*
X191088400Y-68129900D02*
X191088400Y-74922200D01*
%TO.N,Net-(U1-IO8)*%
X188199800Y-78378800D02*
X171741100Y-78378800D01*
X196718300Y-67500000D02*
X196718300Y-69860300D01*
X199000000Y-67500000D02*
X196718300Y-67500000D01*
X196718300Y-69860300D02*
X188199800Y-78378800D01*
%TD*%
M02*
