%TF.GenerationSoftware,KiCad,Pcbnew,8.0.8*%
%TF.CreationDate,2025-02-08T14:15:15-05:00*%
%TF.ProjectId,Project_PCB_Subsystem,50726f6a-6563-4745-9f50-43425f537562,rev?*%
%TF.SameCoordinates,Original*%
%TF.FileFunction,Copper,L1,Top*%
%TF.FilePolarity,Positive*%
%FSLAX46Y46*%
G04 Gerber Fmt 4.6, Leading zero omitted, Abs format (unit mm)*
G04 Created by KiCad (PCBNEW 8.0.8) date 2025-02-08 14:15:15*
%MOMM*%
%LPD*%
G01*
G04 APERTURE LIST*
G04 Aperture macros list*
%AMRoundRect*
0 Rectangle with rounded corners*
0 $1 Rounding radius*
0 $2 $3 $4 $5 $6 $7 $8 $9 X,Y pos of 4 corners*
0 Add a 4 corners polygon primitive as box body*
4,1,4,$2,$3,$4,$5,$6,$7,$8,$9,$2,$3,0*
0 Add four circle primitives for the rounded corners*
1,1,$1+$1,$2,$3*
1,1,$1+$1,$4,$5*
1,1,$1+$1,$6,$7*
1,1,$1+$1,$8,$9*
0 Add four rect primitives between the rounded corners*
20,1,$1+$1,$2,$3,$4,$5,0*
20,1,$1+$1,$4,$5,$6,$7,0*
20,1,$1+$1,$6,$7,$8,$9,0*
20,1,$1+$1,$8,$9,$2,$3,0*%
%AMOutline5P*
0 Free polygon, 5 corners , with rotation*
0 The origin of the aperture is its center*
0 number of corners: always 5*
0 $1 to $10 corner X, Y*
0 $11 Rotation angle, in degrees counterclockwise*
0 create outline with 5 corners*
4,1,5,$1,$2,$3,$4,$5,$6,$7,$8,$9,$10,$1,$2,$11*%
%AMOutline6P*
0 Free polygon, 6 corners , with rotation*
0 The origin of the aperture is its center*
0 number of corners: always 6*
0 $1 to $12 corner X, Y*
0 $13 Rotation angle, in degrees counterclockwise*
0 create outline with 6 corners*
4,1,6,$1,$2,$3,$4,$5,$6,$7,$8,$9,$10,$11,$12,$1,$2,$13*%
%AMOutline7P*
0 Free polygon, 7 corners , with rotation*
0 The origin of the aperture is its center*
0 number of corners: always 7*
0 $1 to $14 corner X, Y*
0 $15 Rotation angle, in degrees counterclockwise*
0 create outline with 7 corners*
4,1,7,$1,$2,$3,$4,$5,$6,$7,$8,$9,$10,$11,$12,$13,$14,$1,$2,$15*%
%AMOutline8P*
0 Free polygon, 8 corners , with rotation*
0 The origin of the aperture is its center*
0 number of corners: always 8*
0 $1 to $16 corner X, Y*
0 $17 Rotation angle, in degrees counterclockwise*
0 create outline with 8 corners*
4,1,8,$1,$2,$3,$4,$5,$6,$7,$8,$9,$10,$11,$12,$13,$14,$15,$16,$1,$2,$17*%
G04 Aperture macros list end*
%ADD10C,0.300000*%
%TA.AperFunction,NonConductor*%
%ADD11C,0.300000*%
%TD*%
%TA.AperFunction,SMDPad,CuDef*%
%ADD12R,0.800000X0.400000*%
%TD*%
%TA.AperFunction,SMDPad,CuDef*%
%ADD13R,0.400000X0.800000*%
%TD*%
%TA.AperFunction,HeatsinkPad*%
%ADD14Outline5P,-0.725000X0.130500X-0.130500X0.725000X0.725000X0.725000X0.725000X-0.725000X-0.725000X-0.725000X0.000000*%
%TD*%
%TA.AperFunction,HeatsinkPad*%
%ADD15R,1.450000X1.450000*%
%TD*%
%TA.AperFunction,SMDPad,CuDef*%
%ADD16R,0.700000X0.700000*%
%TD*%
%TA.AperFunction,SMDPad,CuDef*%
%ADD17R,2.000000X2.500000*%
%TD*%
%TA.AperFunction,SMDPad,CuDef*%
%ADD18RoundRect,0.250000X0.250000X0.550000X-0.250000X0.550000X-0.250000X-0.550000X0.250000X-0.550000X0*%
%TD*%
%TA.AperFunction,ComponentPad*%
%ADD19RoundRect,0.250001X1.149999X-1.149999X1.149999X1.149999X-1.149999X1.149999X-1.149999X-1.149999X0*%
%TD*%
%TA.AperFunction,ComponentPad*%
%ADD20C,2.800000*%
%TD*%
%TA.AperFunction,ComponentPad*%
%ADD21R,3.960000X1.980000*%
%TD*%
%TA.AperFunction,ComponentPad*%
%ADD22O,3.960000X1.980000*%
%TD*%
%TA.AperFunction,ComponentPad*%
%ADD23R,2.300000X2.000000*%
%TD*%
%TA.AperFunction,ComponentPad*%
%ADD24C,2.300000*%
%TD*%
%TA.AperFunction,ViaPad*%
%ADD25C,0.600000*%
%TD*%
%TA.AperFunction,Conductor*%
%ADD26C,0.200000*%
%TD*%
G04 APERTURE END LIST*
D10*
D11*
X188054510Y-190300828D02*
X188054510Y-188800828D01*
X188054510Y-188800828D02*
X188625939Y-188800828D01*
X188625939Y-188800828D02*
X188768796Y-188872257D01*
X188768796Y-188872257D02*
X188840225Y-188943685D01*
X188840225Y-188943685D02*
X188911653Y-189086542D01*
X188911653Y-189086542D02*
X188911653Y-189300828D01*
X188911653Y-189300828D02*
X188840225Y-189443685D01*
X188840225Y-189443685D02*
X188768796Y-189515114D01*
X188768796Y-189515114D02*
X188625939Y-189586542D01*
X188625939Y-189586542D02*
X188054510Y-189586542D01*
X189554510Y-190300828D02*
X189554510Y-189300828D01*
X189554510Y-189586542D02*
X189625939Y-189443685D01*
X189625939Y-189443685D02*
X189697368Y-189372257D01*
X189697368Y-189372257D02*
X189840225Y-189300828D01*
X189840225Y-189300828D02*
X189983082Y-189300828D01*
X190697367Y-190300828D02*
X190554510Y-190229400D01*
X190554510Y-190229400D02*
X190483081Y-190157971D01*
X190483081Y-190157971D02*
X190411653Y-190015114D01*
X190411653Y-190015114D02*
X190411653Y-189586542D01*
X190411653Y-189586542D02*
X190483081Y-189443685D01*
X190483081Y-189443685D02*
X190554510Y-189372257D01*
X190554510Y-189372257D02*
X190697367Y-189300828D01*
X190697367Y-189300828D02*
X190911653Y-189300828D01*
X190911653Y-189300828D02*
X191054510Y-189372257D01*
X191054510Y-189372257D02*
X191125939Y-189443685D01*
X191125939Y-189443685D02*
X191197367Y-189586542D01*
X191197367Y-189586542D02*
X191197367Y-190015114D01*
X191197367Y-190015114D02*
X191125939Y-190157971D01*
X191125939Y-190157971D02*
X191054510Y-190229400D01*
X191054510Y-190229400D02*
X190911653Y-190300828D01*
X190911653Y-190300828D02*
X190697367Y-190300828D01*
X191840224Y-189300828D02*
X191840224Y-190586542D01*
X191840224Y-190586542D02*
X191768796Y-190729400D01*
X191768796Y-190729400D02*
X191625939Y-190800828D01*
X191625939Y-190800828D02*
X191554510Y-190800828D01*
X191840224Y-188800828D02*
X191768796Y-188872257D01*
X191768796Y-188872257D02*
X191840224Y-188943685D01*
X191840224Y-188943685D02*
X191911653Y-188872257D01*
X191911653Y-188872257D02*
X191840224Y-188800828D01*
X191840224Y-188800828D02*
X191840224Y-188943685D01*
X193125939Y-190229400D02*
X192983082Y-190300828D01*
X192983082Y-190300828D02*
X192697368Y-190300828D01*
X192697368Y-190300828D02*
X192554510Y-190229400D01*
X192554510Y-190229400D02*
X192483082Y-190086542D01*
X192483082Y-190086542D02*
X192483082Y-189515114D01*
X192483082Y-189515114D02*
X192554510Y-189372257D01*
X192554510Y-189372257D02*
X192697368Y-189300828D01*
X192697368Y-189300828D02*
X192983082Y-189300828D01*
X192983082Y-189300828D02*
X193125939Y-189372257D01*
X193125939Y-189372257D02*
X193197368Y-189515114D01*
X193197368Y-189515114D02*
X193197368Y-189657971D01*
X193197368Y-189657971D02*
X192483082Y-189800828D01*
X194483082Y-190229400D02*
X194340224Y-190300828D01*
X194340224Y-190300828D02*
X194054510Y-190300828D01*
X194054510Y-190300828D02*
X193911653Y-190229400D01*
X193911653Y-190229400D02*
X193840224Y-190157971D01*
X193840224Y-190157971D02*
X193768796Y-190015114D01*
X193768796Y-190015114D02*
X193768796Y-189586542D01*
X193768796Y-189586542D02*
X193840224Y-189443685D01*
X193840224Y-189443685D02*
X193911653Y-189372257D01*
X193911653Y-189372257D02*
X194054510Y-189300828D01*
X194054510Y-189300828D02*
X194340224Y-189300828D01*
X194340224Y-189300828D02*
X194483082Y-189372257D01*
X194911653Y-189300828D02*
X195483081Y-189300828D01*
X195125938Y-188800828D02*
X195125938Y-190086542D01*
X195125938Y-190086542D02*
X195197367Y-190229400D01*
X195197367Y-190229400D02*
X195340224Y-190300828D01*
X195340224Y-190300828D02*
X195483081Y-190300828D01*
X197125938Y-190300828D02*
X197125938Y-188800828D01*
X197125938Y-188800828D02*
X197697367Y-188800828D01*
X197697367Y-188800828D02*
X197840224Y-188872257D01*
X197840224Y-188872257D02*
X197911653Y-188943685D01*
X197911653Y-188943685D02*
X197983081Y-189086542D01*
X197983081Y-189086542D02*
X197983081Y-189300828D01*
X197983081Y-189300828D02*
X197911653Y-189443685D01*
X197911653Y-189443685D02*
X197840224Y-189515114D01*
X197840224Y-189515114D02*
X197697367Y-189586542D01*
X197697367Y-189586542D02*
X197125938Y-189586542D01*
X199483081Y-190157971D02*
X199411653Y-190229400D01*
X199411653Y-190229400D02*
X199197367Y-190300828D01*
X199197367Y-190300828D02*
X199054510Y-190300828D01*
X199054510Y-190300828D02*
X198840224Y-190229400D01*
X198840224Y-190229400D02*
X198697367Y-190086542D01*
X198697367Y-190086542D02*
X198625938Y-189943685D01*
X198625938Y-189943685D02*
X198554510Y-189657971D01*
X198554510Y-189657971D02*
X198554510Y-189443685D01*
X198554510Y-189443685D02*
X198625938Y-189157971D01*
X198625938Y-189157971D02*
X198697367Y-189015114D01*
X198697367Y-189015114D02*
X198840224Y-188872257D01*
X198840224Y-188872257D02*
X199054510Y-188800828D01*
X199054510Y-188800828D02*
X199197367Y-188800828D01*
X199197367Y-188800828D02*
X199411653Y-188872257D01*
X199411653Y-188872257D02*
X199483081Y-188943685D01*
X200625938Y-189515114D02*
X200840224Y-189586542D01*
X200840224Y-189586542D02*
X200911653Y-189657971D01*
X200911653Y-189657971D02*
X200983081Y-189800828D01*
X200983081Y-189800828D02*
X200983081Y-190015114D01*
X200983081Y-190015114D02*
X200911653Y-190157971D01*
X200911653Y-190157971D02*
X200840224Y-190229400D01*
X200840224Y-190229400D02*
X200697367Y-190300828D01*
X200697367Y-190300828D02*
X200125938Y-190300828D01*
X200125938Y-190300828D02*
X200125938Y-188800828D01*
X200125938Y-188800828D02*
X200625938Y-188800828D01*
X200625938Y-188800828D02*
X200768796Y-188872257D01*
X200768796Y-188872257D02*
X200840224Y-188943685D01*
X200840224Y-188943685D02*
X200911653Y-189086542D01*
X200911653Y-189086542D02*
X200911653Y-189229400D01*
X200911653Y-189229400D02*
X200840224Y-189372257D01*
X200840224Y-189372257D02*
X200768796Y-189443685D01*
X200768796Y-189443685D02*
X200625938Y-189515114D01*
X200625938Y-189515114D02*
X200125938Y-189515114D01*
X203483081Y-190300828D02*
X202768795Y-190300828D01*
X202768795Y-190300828D02*
X202768795Y-188800828D01*
X204625939Y-190300828D02*
X204625939Y-189515114D01*
X204625939Y-189515114D02*
X204554510Y-189372257D01*
X204554510Y-189372257D02*
X204411653Y-189300828D01*
X204411653Y-189300828D02*
X204125939Y-189300828D01*
X204125939Y-189300828D02*
X203983081Y-189372257D01*
X204625939Y-190229400D02*
X204483081Y-190300828D01*
X204483081Y-190300828D02*
X204125939Y-190300828D01*
X204125939Y-190300828D02*
X203983081Y-190229400D01*
X203983081Y-190229400D02*
X203911653Y-190086542D01*
X203911653Y-190086542D02*
X203911653Y-189943685D01*
X203911653Y-189943685D02*
X203983081Y-189800828D01*
X203983081Y-189800828D02*
X204125939Y-189729400D01*
X204125939Y-189729400D02*
X204483081Y-189729400D01*
X204483081Y-189729400D02*
X204625939Y-189657971D01*
X205197367Y-189300828D02*
X205554510Y-190300828D01*
X205911653Y-189300828D02*
X205554510Y-190300828D01*
X205554510Y-190300828D02*
X205411653Y-190657971D01*
X205411653Y-190657971D02*
X205340224Y-190729400D01*
X205340224Y-190729400D02*
X205197367Y-190800828D01*
X206697367Y-190300828D02*
X206554510Y-190229400D01*
X206554510Y-190229400D02*
X206483081Y-190157971D01*
X206483081Y-190157971D02*
X206411653Y-190015114D01*
X206411653Y-190015114D02*
X206411653Y-189586542D01*
X206411653Y-189586542D02*
X206483081Y-189443685D01*
X206483081Y-189443685D02*
X206554510Y-189372257D01*
X206554510Y-189372257D02*
X206697367Y-189300828D01*
X206697367Y-189300828D02*
X206911653Y-189300828D01*
X206911653Y-189300828D02*
X207054510Y-189372257D01*
X207054510Y-189372257D02*
X207125939Y-189443685D01*
X207125939Y-189443685D02*
X207197367Y-189586542D01*
X207197367Y-189586542D02*
X207197367Y-190015114D01*
X207197367Y-190015114D02*
X207125939Y-190157971D01*
X207125939Y-190157971D02*
X207054510Y-190229400D01*
X207054510Y-190229400D02*
X206911653Y-190300828D01*
X206911653Y-190300828D02*
X206697367Y-190300828D01*
X208483082Y-189300828D02*
X208483082Y-190300828D01*
X207840224Y-189300828D02*
X207840224Y-190086542D01*
X207840224Y-190086542D02*
X207911653Y-190229400D01*
X207911653Y-190229400D02*
X208054510Y-190300828D01*
X208054510Y-190300828D02*
X208268796Y-190300828D01*
X208268796Y-190300828D02*
X208411653Y-190229400D01*
X208411653Y-190229400D02*
X208483082Y-190157971D01*
X208983082Y-189300828D02*
X209554510Y-189300828D01*
X209197367Y-188800828D02*
X209197367Y-190086542D01*
X209197367Y-190086542D02*
X209268796Y-190229400D01*
X209268796Y-190229400D02*
X209411653Y-190300828D01*
X209411653Y-190300828D02*
X209554510Y-190300828D01*
D10*
D11*
X269840225Y-193800828D02*
X268983082Y-193800828D01*
X269411653Y-193800828D02*
X269411653Y-192300828D01*
X269411653Y-192300828D02*
X269268796Y-192515114D01*
X269268796Y-192515114D02*
X269125939Y-192657971D01*
X269125939Y-192657971D02*
X268983082Y-192729400D01*
X270483081Y-193657971D02*
X270554510Y-193729400D01*
X270554510Y-193729400D02*
X270483081Y-193800828D01*
X270483081Y-193800828D02*
X270411653Y-193729400D01*
X270411653Y-193729400D02*
X270483081Y-193657971D01*
X270483081Y-193657971D02*
X270483081Y-193800828D01*
X271483082Y-192300828D02*
X271625939Y-192300828D01*
X271625939Y-192300828D02*
X271768796Y-192372257D01*
X271768796Y-192372257D02*
X271840225Y-192443685D01*
X271840225Y-192443685D02*
X271911653Y-192586542D01*
X271911653Y-192586542D02*
X271983082Y-192872257D01*
X271983082Y-192872257D02*
X271983082Y-193229400D01*
X271983082Y-193229400D02*
X271911653Y-193515114D01*
X271911653Y-193515114D02*
X271840225Y-193657971D01*
X271840225Y-193657971D02*
X271768796Y-193729400D01*
X271768796Y-193729400D02*
X271625939Y-193800828D01*
X271625939Y-193800828D02*
X271483082Y-193800828D01*
X271483082Y-193800828D02*
X271340225Y-193729400D01*
X271340225Y-193729400D02*
X271268796Y-193657971D01*
X271268796Y-193657971D02*
X271197367Y-193515114D01*
X271197367Y-193515114D02*
X271125939Y-193229400D01*
X271125939Y-193229400D02*
X271125939Y-192872257D01*
X271125939Y-192872257D02*
X271197367Y-192586542D01*
X271197367Y-192586542D02*
X271268796Y-192443685D01*
X271268796Y-192443685D02*
X271340225Y-192372257D01*
X271340225Y-192372257D02*
X271483082Y-192300828D01*
D10*
D11*
X208340225Y-191800828D02*
X208483082Y-191800828D01*
X208483082Y-191800828D02*
X208625939Y-191872257D01*
X208625939Y-191872257D02*
X208697368Y-191943685D01*
X208697368Y-191943685D02*
X208768796Y-192086542D01*
X208768796Y-192086542D02*
X208840225Y-192372257D01*
X208840225Y-192372257D02*
X208840225Y-192729400D01*
X208840225Y-192729400D02*
X208768796Y-193015114D01*
X208768796Y-193015114D02*
X208697368Y-193157971D01*
X208697368Y-193157971D02*
X208625939Y-193229400D01*
X208625939Y-193229400D02*
X208483082Y-193300828D01*
X208483082Y-193300828D02*
X208340225Y-193300828D01*
X208340225Y-193300828D02*
X208197368Y-193229400D01*
X208197368Y-193229400D02*
X208125939Y-193157971D01*
X208125939Y-193157971D02*
X208054510Y-193015114D01*
X208054510Y-193015114D02*
X207983082Y-192729400D01*
X207983082Y-192729400D02*
X207983082Y-192372257D01*
X207983082Y-192372257D02*
X208054510Y-192086542D01*
X208054510Y-192086542D02*
X208125939Y-191943685D01*
X208125939Y-191943685D02*
X208197368Y-191872257D01*
X208197368Y-191872257D02*
X208340225Y-191800828D01*
X209411653Y-191943685D02*
X209483081Y-191872257D01*
X209483081Y-191872257D02*
X209625939Y-191800828D01*
X209625939Y-191800828D02*
X209983081Y-191800828D01*
X209983081Y-191800828D02*
X210125939Y-191872257D01*
X210125939Y-191872257D02*
X210197367Y-191943685D01*
X210197367Y-191943685D02*
X210268796Y-192086542D01*
X210268796Y-192086542D02*
X210268796Y-192229400D01*
X210268796Y-192229400D02*
X210197367Y-192443685D01*
X210197367Y-192443685D02*
X209340224Y-193300828D01*
X209340224Y-193300828D02*
X210268796Y-193300828D01*
X211983081Y-191729400D02*
X210697367Y-193657971D01*
X212768796Y-191800828D02*
X212911653Y-191800828D01*
X212911653Y-191800828D02*
X213054510Y-191872257D01*
X213054510Y-191872257D02*
X213125939Y-191943685D01*
X213125939Y-191943685D02*
X213197367Y-192086542D01*
X213197367Y-192086542D02*
X213268796Y-192372257D01*
X213268796Y-192372257D02*
X213268796Y-192729400D01*
X213268796Y-192729400D02*
X213197367Y-193015114D01*
X213197367Y-193015114D02*
X213125939Y-193157971D01*
X213125939Y-193157971D02*
X213054510Y-193229400D01*
X213054510Y-193229400D02*
X212911653Y-193300828D01*
X212911653Y-193300828D02*
X212768796Y-193300828D01*
X212768796Y-193300828D02*
X212625939Y-193229400D01*
X212625939Y-193229400D02*
X212554510Y-193157971D01*
X212554510Y-193157971D02*
X212483081Y-193015114D01*
X212483081Y-193015114D02*
X212411653Y-192729400D01*
X212411653Y-192729400D02*
X212411653Y-192372257D01*
X212411653Y-192372257D02*
X212483081Y-192086542D01*
X212483081Y-192086542D02*
X212554510Y-191943685D01*
X212554510Y-191943685D02*
X212625939Y-191872257D01*
X212625939Y-191872257D02*
X212768796Y-191800828D01*
X213983081Y-193300828D02*
X214268795Y-193300828D01*
X214268795Y-193300828D02*
X214411652Y-193229400D01*
X214411652Y-193229400D02*
X214483081Y-193157971D01*
X214483081Y-193157971D02*
X214625938Y-192943685D01*
X214625938Y-192943685D02*
X214697367Y-192657971D01*
X214697367Y-192657971D02*
X214697367Y-192086542D01*
X214697367Y-192086542D02*
X214625938Y-191943685D01*
X214625938Y-191943685D02*
X214554510Y-191872257D01*
X214554510Y-191872257D02*
X214411652Y-191800828D01*
X214411652Y-191800828D02*
X214125938Y-191800828D01*
X214125938Y-191800828D02*
X213983081Y-191872257D01*
X213983081Y-191872257D02*
X213911652Y-191943685D01*
X213911652Y-191943685D02*
X213840224Y-192086542D01*
X213840224Y-192086542D02*
X213840224Y-192443685D01*
X213840224Y-192443685D02*
X213911652Y-192586542D01*
X213911652Y-192586542D02*
X213983081Y-192657971D01*
X213983081Y-192657971D02*
X214125938Y-192729400D01*
X214125938Y-192729400D02*
X214411652Y-192729400D01*
X214411652Y-192729400D02*
X214554510Y-192657971D01*
X214554510Y-192657971D02*
X214625938Y-192586542D01*
X214625938Y-192586542D02*
X214697367Y-192443685D01*
X216411652Y-191729400D02*
X215125938Y-193657971D01*
X216840224Y-191943685D02*
X216911652Y-191872257D01*
X216911652Y-191872257D02*
X217054510Y-191800828D01*
X217054510Y-191800828D02*
X217411652Y-191800828D01*
X217411652Y-191800828D02*
X217554510Y-191872257D01*
X217554510Y-191872257D02*
X217625938Y-191943685D01*
X217625938Y-191943685D02*
X217697367Y-192086542D01*
X217697367Y-192086542D02*
X217697367Y-192229400D01*
X217697367Y-192229400D02*
X217625938Y-192443685D01*
X217625938Y-192443685D02*
X216768795Y-193300828D01*
X216768795Y-193300828D02*
X217697367Y-193300828D01*
X218625938Y-191800828D02*
X218768795Y-191800828D01*
X218768795Y-191800828D02*
X218911652Y-191872257D01*
X218911652Y-191872257D02*
X218983081Y-191943685D01*
X218983081Y-191943685D02*
X219054509Y-192086542D01*
X219054509Y-192086542D02*
X219125938Y-192372257D01*
X219125938Y-192372257D02*
X219125938Y-192729400D01*
X219125938Y-192729400D02*
X219054509Y-193015114D01*
X219054509Y-193015114D02*
X218983081Y-193157971D01*
X218983081Y-193157971D02*
X218911652Y-193229400D01*
X218911652Y-193229400D02*
X218768795Y-193300828D01*
X218768795Y-193300828D02*
X218625938Y-193300828D01*
X218625938Y-193300828D02*
X218483081Y-193229400D01*
X218483081Y-193229400D02*
X218411652Y-193157971D01*
X218411652Y-193157971D02*
X218340223Y-193015114D01*
X218340223Y-193015114D02*
X218268795Y-192729400D01*
X218268795Y-192729400D02*
X218268795Y-192372257D01*
X218268795Y-192372257D02*
X218340223Y-192086542D01*
X218340223Y-192086542D02*
X218411652Y-191943685D01*
X218411652Y-191943685D02*
X218483081Y-191872257D01*
X218483081Y-191872257D02*
X218625938Y-191800828D01*
X219697366Y-191943685D02*
X219768794Y-191872257D01*
X219768794Y-191872257D02*
X219911652Y-191800828D01*
X219911652Y-191800828D02*
X220268794Y-191800828D01*
X220268794Y-191800828D02*
X220411652Y-191872257D01*
X220411652Y-191872257D02*
X220483080Y-191943685D01*
X220483080Y-191943685D02*
X220554509Y-192086542D01*
X220554509Y-192086542D02*
X220554509Y-192229400D01*
X220554509Y-192229400D02*
X220483080Y-192443685D01*
X220483080Y-192443685D02*
X219625937Y-193300828D01*
X219625937Y-193300828D02*
X220554509Y-193300828D01*
X221911651Y-191800828D02*
X221197365Y-191800828D01*
X221197365Y-191800828D02*
X221125937Y-192515114D01*
X221125937Y-192515114D02*
X221197365Y-192443685D01*
X221197365Y-192443685D02*
X221340223Y-192372257D01*
X221340223Y-192372257D02*
X221697365Y-192372257D01*
X221697365Y-192372257D02*
X221840223Y-192443685D01*
X221840223Y-192443685D02*
X221911651Y-192515114D01*
X221911651Y-192515114D02*
X221983080Y-192657971D01*
X221983080Y-192657971D02*
X221983080Y-193015114D01*
X221983080Y-193015114D02*
X221911651Y-193157971D01*
X221911651Y-193157971D02*
X221840223Y-193229400D01*
X221840223Y-193229400D02*
X221697365Y-193300828D01*
X221697365Y-193300828D02*
X221340223Y-193300828D01*
X221340223Y-193300828D02*
X221197365Y-193229400D01*
X221197365Y-193229400D02*
X221125937Y-193157971D01*
D12*
%TO.P,U1,1,GND*%
%TO.N,GND*%
X162600000Y-77000000D03*
%TO.P,U1,2,GND*%
X162600000Y-77800000D03*
%TO.P,U1,3,3V3*%
%TO.N,VCC*%
X162600000Y-78600000D03*
%TO.P,U1,4,NC*%
%TO.N,unconnected-(U1-NC-Pad4)*%
X162600000Y-79400000D03*
%TO.P,U1,5,IO2*%
%TO.N,unconnected-(U1-IO2-Pad5)*%
X162600000Y-80200000D03*
%TO.P,U1,6,IO3*%
%TO.N,unconnected-(U1-IO3-Pad6)*%
X162600000Y-81000000D03*
%TO.P,U1,7,NC*%
%TO.N,unconnected-(U1-NC-Pad7)*%
X162600000Y-81800000D03*
%TO.P,U1,8,EN*%
%TO.N,VCC*%
X162600000Y-82600000D03*
%TO.P,U1,9,IO4*%
%TO.N,unconnected-(U1-IO4-Pad9)*%
X162600000Y-83400000D03*
%TO.P,U1,10,IO5*%
%TO.N,unconnected-(U1-IO5-Pad10)*%
X162600000Y-84200000D03*
%TO.P,U1,11,GND*%
%TO.N,GND*%
X162600000Y-85000000D03*
D13*
%TO.P,U1,12,IO0*%
%TO.N,Net-(MS1-PWM)*%
X163700000Y-85900000D03*
%TO.P,U1,13,IO1*%
%TO.N,Net-(MS2-PWM)*%
X164500000Y-85900000D03*
%TO.P,U1,14,GND*%
%TO.N,GND*%
X165300000Y-85900000D03*
%TO.P,U1,15,IO6*%
%TO.N,unconnected-(U1-IO6-Pad15)*%
X166100000Y-85900000D03*
%TO.P,U1,16,IO7*%
%TO.N,unconnected-(U1-IO7-Pad16)*%
X166900000Y-85900000D03*
%TO.P,U1,17,IO12*%
%TO.N,Net-(KS1-Pin_1)*%
X167700000Y-85900000D03*
%TO.P,U1,18,IO13*%
%TO.N,Net-(KS1-Pin_2)*%
X168500000Y-85900000D03*
%TO.P,U1,19,IO14*%
%TO.N,Net-(KS1-Pin_3)*%
X169300000Y-85900000D03*
%TO.P,U1,20,IO15*%
%TO.N,Net-(KS1-Pin_4)*%
X170100000Y-85900000D03*
%TO.P,U1,21,NC*%
%TO.N,unconnected-(U1-NC-Pad21)*%
X170900000Y-85900000D03*
%TO.P,U1,22,IO8*%
%TO.N,Net-(U1-IO8)*%
X171700000Y-85900000D03*
%TO.P,U1,23,IO9*%
%TO.N,Net-(U1-IO9)*%
X172500000Y-85900000D03*
%TO.P,U1,24,IO18*%
%TO.N,Net-(KS1-Pin_5)*%
X173300000Y-85900000D03*
D12*
%TO.P,U1,25,IO19*%
%TO.N,Net-(KS1-Pin_6)*%
X174400000Y-85000000D03*
%TO.P,U1,26,IO20*%
%TO.N,Net-(KS1-Pin_7)*%
X174400000Y-84200000D03*
%TO.P,U1,27,IO21*%
%TO.N,Net-(KS1-Pin_8)*%
X174400000Y-83400000D03*
%TO.P,U1,28,IO22*%
%TO.N,Net-(B1-B)*%
X174400000Y-82600000D03*
%TO.P,U1,29,IO23*%
%TO.N,unconnected-(U1-IO23-Pad29)*%
X174400000Y-81800000D03*
%TO.P,U1,30,RXD0*%
%TO.N,Net-(LS1-Pin_4)*%
X174400000Y-81000000D03*
%TO.P,U1,31,TXD0*%
%TO.N,Net-(LS1-Pin_3)*%
X174400000Y-80200000D03*
%TO.P,U1,32,NC*%
%TO.N,unconnected-(U1-NC-Pad32)*%
X174400000Y-79400000D03*
%TO.P,U1,33,NC*%
%TO.N,unconnected-(U1-NC-Pad33)*%
X174400000Y-78600000D03*
%TO.P,U1,34,NC*%
%TO.N,unconnected-(U1-NC-Pad34)*%
X174400000Y-77800000D03*
%TO.P,U1,35,NC*%
%TO.N,unconnected-(U1-NC-Pad35)*%
X174400000Y-77000000D03*
D13*
%TO.P,U1,36,GND*%
%TO.N,GND*%
X173300000Y-76100000D03*
%TO.P,U1,37,GND*%
X172500000Y-76100000D03*
%TO.P,U1,38,GND*%
X171700000Y-76100000D03*
%TO.P,U1,39,GND*%
X170900000Y-76100000D03*
%TO.P,U1,40,GND*%
X170100000Y-76100000D03*
%TO.P,U1,41,GND*%
X169300000Y-76100000D03*
%TO.P,U1,42,GND*%
X168500000Y-76100000D03*
%TO.P,U1,43,GND*%
X167700000Y-76100000D03*
%TO.P,U1,44,GND*%
X166900000Y-76100000D03*
%TO.P,U1,45,GND*%
X166100000Y-76100000D03*
%TO.P,U1,46,GND*%
X165300000Y-76100000D03*
%TO.P,U1,47,GND*%
X164500000Y-76100000D03*
%TO.P,U1,48,GND*%
X163700000Y-76100000D03*
D14*
%TO.P,U1,49,GND*%
X166525000Y-79025000D03*
D15*
X166525000Y-81000000D03*
X166525000Y-82975000D03*
X168500000Y-79025000D03*
X168500000Y-81000000D03*
X168500000Y-82975000D03*
X170475000Y-79025000D03*
X170475000Y-81000000D03*
X170475000Y-82975000D03*
D16*
%TO.P,U1,50,GND*%
X174450000Y-76050000D03*
%TO.P,U1,51,GND*%
X174450000Y-85950000D03*
%TO.P,U1,52,GND*%
X162550000Y-85950000D03*
%TO.P,U1,53,GND*%
X162550000Y-76050000D03*
%TD*%
D17*
%TO.P,RV1,1,1*%
%TO.N,Net-(RV1-Pad1)*%
X157850000Y-130175000D03*
%TO.P,RV1,2,2*%
%TO.N,unconnected-(RV1-Pad2)*%
X160000000Y-138825000D03*
%TO.P,RV1,3,3*%
%TO.N,GND*%
X162150000Y-130175000D03*
%TD*%
D18*
%TO.P,B1,1,C*%
%TO.N,VCC*%
X179750000Y-135700000D03*
%TO.P,B1,2,B*%
%TO.N,Net-(B1-B)*%
X178000000Y-138000000D03*
%TO.P,B1,3,A*%
%TO.N,GND*%
X176250000Y-135700000D03*
%TD*%
D19*
%TO.P,KS1,1,Pin_1*%
%TO.N,Net-(KS1-Pin_1)*%
X199000000Y-119000000D03*
D20*
%TO.P,KS1,2,Pin_2*%
%TO.N,Net-(KS1-Pin_2)*%
X199000000Y-114000000D03*
%TO.P,KS1,3,Pin_3*%
%TO.N,Net-(KS1-Pin_3)*%
X199000000Y-109000000D03*
%TO.P,KS1,4,Pin_4*%
%TO.N,Net-(KS1-Pin_4)*%
X199000000Y-104000000D03*
%TO.P,KS1,5,Pin_5*%
%TO.N,Net-(KS1-Pin_5)*%
X199000000Y-99000000D03*
%TO.P,KS1,6,Pin_6*%
%TO.N,Net-(KS1-Pin_6)*%
X199000000Y-94000000D03*
%TO.P,KS1,7,Pin_7*%
%TO.N,Net-(KS1-Pin_7)*%
X199000000Y-89000000D03*
%TO.P,KS1,8,Pin_8*%
%TO.N,Net-(KS1-Pin_8)*%
X199000000Y-84000000D03*
%TD*%
D21*
%TO.P,LS1,1,Pin_1*%
%TO.N,GND*%
X199000000Y-41000000D03*
D22*
%TO.P,LS1,2,Pin_2*%
%TO.N,VCC*%
X199000000Y-46000000D03*
%TO.P,LS1,3,Pin_3*%
%TO.N,Net-(LS1-Pin_3)*%
X199000000Y-51000000D03*
%TO.P,LS1,4,Pin_4*%
%TO.N,Net-(LS1-Pin_4)*%
X199000000Y-56000000D03*
%TD*%
D23*
%TO.P,PS1,1,AC/N*%
%TO.N,GND*%
X183500000Y-48982500D03*
D24*
%TO.P,PS1,2,AC/L*%
%TO.N,AC*%
X183500000Y-33782500D03*
%TO.P,PS1,3,-Vo*%
%TO.N,GND*%
X155500000Y-48982500D03*
%TO.P,PS1,4,+Vo*%
%TO.N,VCC*%
X155500000Y-41382500D03*
%TD*%
D21*
%TO.P,US1,1,Pin_1*%
%TO.N,Net-(U1-IO9)*%
X199000000Y-62500000D03*
D22*
%TO.P,US1,2,Pin_2*%
%TO.N,Net-(U1-IO8)*%
X199000000Y-67500000D03*
%TO.P,US1,3,Pin_3*%
%TO.N,VCC*%
X199000000Y-72500000D03*
%TO.P,US1,4,Pin_4*%
%TO.N,GND*%
X199000000Y-77500000D03*
%TD*%
D25*
%TO.N,GND*%
X175101700Y-87302600D03*
X179407900Y-79540500D03*
%TO.N,VCC*%
X201281700Y-124600000D03*
X179750000Y-124600000D03*
X163512700Y-79182200D03*
%TO.N,Net-(KS1-Pin_1)*%
X167700000Y-119000000D03*
%TO.N,Net-(KS1-Pin_8)*%
X175306200Y-84000000D03*
%TO.N,Net-(KS1-Pin_3)*%
X169300000Y-109000000D03*
%TO.N,Net-(KS1-Pin_4)*%
X170100000Y-100860600D03*
%TO.N,Net-(KS1-Pin_5)*%
X173300000Y-99000000D03*
%TO.N,Net-(KS1-Pin_6)*%
X175339100Y-85066400D03*
%TO.N,Net-(KS1-Pin_2)*%
X168500000Y-114000000D03*
%TO.N,Net-(KS1-Pin_7)*%
X173495400Y-84220600D03*
%TO.N,Net-(LS1-Pin_4)*%
X195437300Y-80543900D03*
X195437300Y-56000000D03*
X173484300Y-80543900D03*
%TO.N,Net-(LS1-Pin_3)*%
X196038700Y-51000000D03*
X196316600Y-79942200D03*
X175327100Y-79898100D03*
%TO.N,Net-(RV1-Pad1)*%
X157850000Y-135400000D03*
%TO.N,Net-(U1-IO9)*%
X172650000Y-77429800D03*
%TO.N,Net-(U1-IO8)*%
X171741100Y-78378800D03*
%TD*%
D26*
%TO.N,GND*%
X166100000Y-76801700D02*
X166525000Y-77226700D01*
X167700000Y-76450800D02*
X167700000Y-76801700D01*
X170475000Y-76825800D02*
X170475000Y-79025000D01*
X161898300Y-85624100D02*
X161898300Y-85000000D01*
X166525000Y-82975000D02*
X166525000Y-81000000D01*
X163700000Y-76100000D02*
X163500000Y-76100000D01*
X170900000Y-76400000D02*
X171301700Y-76801700D01*
X165300000Y-85900000D02*
X165300000Y-85198300D01*
X196751900Y-76965600D02*
X196666600Y-76880300D01*
X196666600Y-76880300D02*
X196666600Y-41051700D01*
X168050900Y-76801700D02*
X168500000Y-76801700D01*
X171700000Y-76400000D02*
X171700000Y-76801700D01*
X166525000Y-77226700D02*
X166525000Y-77998300D01*
X169300000Y-76450800D02*
X169650900Y-76801700D01*
X162550000Y-86275800D02*
X162550000Y-86601700D01*
X162600000Y-77000000D02*
X161898300Y-77000000D01*
X161898300Y-76050000D02*
X161898300Y-77000000D01*
X169300000Y-76100000D02*
X169300000Y-76450800D01*
X162550000Y-76050000D02*
X161898300Y-76050000D01*
X165300000Y-76100000D02*
X166100000Y-76100000D01*
X162249200Y-85000000D02*
X162600000Y-85000000D01*
X196718300Y-77499900D02*
X196751900Y-77466300D01*
X172500000Y-76100000D02*
X172500000Y-76801700D01*
X173350000Y-76050000D02*
X173300000Y-76100000D01*
X162600000Y-77800000D02*
X163301700Y-77800000D01*
X167700000Y-76450800D02*
X168050900Y-76801700D01*
X196718300Y-77500000D02*
X196718300Y-77499900D01*
X174450000Y-76050000D02*
X173350000Y-76050000D01*
X174450000Y-76050000D02*
X175101700Y-76050000D01*
X162249200Y-85000000D02*
X161898300Y-85000000D01*
X166900000Y-76801700D02*
X166900000Y-76100000D01*
X175101700Y-76050000D02*
X176003900Y-76952200D01*
X171700000Y-76100000D02*
X171700000Y-76400000D01*
X168500000Y-82975000D02*
X168500000Y-81000000D01*
X175101700Y-85950000D02*
X175101700Y-87302600D01*
X164500000Y-76100000D02*
X165300000Y-76100000D01*
X172101700Y-76801700D02*
X172500000Y-76801700D01*
X170875900Y-76825800D02*
X170900000Y-76801700D01*
X168500000Y-76100000D02*
X168500000Y-76450800D01*
X174450000Y-85950000D02*
X175101700Y-85950000D01*
X165101700Y-85000000D02*
X165300000Y-85198300D01*
X171700000Y-76400000D02*
X172101700Y-76801700D01*
X164500000Y-76100000D02*
X163700000Y-76100000D01*
X162550000Y-85950000D02*
X162550000Y-86275800D01*
X166525000Y-82975000D02*
X166525000Y-84001700D01*
X170100000Y-76450800D02*
X170475000Y-76825800D01*
X170900000Y-76100000D02*
X170900000Y-76400000D01*
X176003900Y-76952200D02*
X176003900Y-79540500D01*
X196666600Y-41051700D02*
X196718300Y-41000000D01*
X162600000Y-85000000D02*
X165101700Y-85000000D01*
X166525000Y-77998300D02*
X166900000Y-77623300D01*
X176003900Y-79540500D02*
X179407900Y-79540500D01*
X162150000Y-87001700D02*
X162550000Y-86601700D01*
X165300000Y-85198300D02*
X165328400Y-85198300D01*
X168850900Y-76801700D02*
X169300000Y-76801700D01*
X170900000Y-76400000D02*
X170900000Y-76801700D01*
X175101700Y-134551700D02*
X176250000Y-135700000D01*
X165328400Y-85198300D02*
X166525000Y-84001700D01*
X167700000Y-76100000D02*
X167700000Y-76450800D01*
X170475000Y-76825800D02*
X170875900Y-76825800D01*
X169650900Y-76801700D02*
X170100000Y-76801700D01*
X199000000Y-41000000D02*
X196718300Y-41000000D01*
X163500000Y-76100000D02*
X162600000Y-77000000D01*
X162600000Y-77000000D02*
X163301700Y-77000000D01*
X175101700Y-87302600D02*
X175101700Y-134551700D01*
X170100000Y-76100000D02*
X170100000Y-76450800D01*
X170100000Y-76450800D02*
X170100000Y-76801700D01*
X162150000Y-130175000D02*
X162150000Y-87001700D01*
X168500000Y-76450800D02*
X168500000Y-76801700D01*
X163301700Y-77800000D02*
X163301700Y-77000000D01*
X170475000Y-81000000D02*
X170475000Y-79025000D01*
X166900000Y-77623300D02*
X166900000Y-76801700D01*
X162550000Y-86275800D02*
X161898300Y-85624100D01*
X168500000Y-81000000D02*
X168500000Y-79025000D01*
X169300000Y-76450800D02*
X169300000Y-76801700D01*
X166525000Y-79025000D02*
X166525000Y-77998300D01*
X171301700Y-76801700D02*
X171700000Y-76801700D01*
X199000000Y-77500000D02*
X196718300Y-77500000D01*
X166525000Y-81000000D02*
X166525000Y-79025000D01*
X166900000Y-76801700D02*
X167700000Y-76801700D01*
X166100000Y-76100000D02*
X166100000Y-76801700D01*
X168500000Y-76450800D02*
X168850900Y-76801700D01*
X168500000Y-79025000D02*
X168500000Y-76801700D01*
X170475000Y-82975000D02*
X170475000Y-81000000D01*
X172500000Y-76100000D02*
X173300000Y-76100000D01*
X196751900Y-77466300D02*
X196751900Y-76965600D01*
%TO.N,VCC*%
X162600000Y-78600000D02*
X163301700Y-78600000D01*
X162600000Y-82600000D02*
X163301700Y-82600000D01*
X163301700Y-79182200D02*
X163512700Y-79182200D01*
X199000000Y-72500000D02*
X201281700Y-72500000D01*
X163301700Y-78600000D02*
X163301700Y-79182200D01*
X201281700Y-46000000D02*
X201281700Y-72500000D01*
X179750000Y-135700000D02*
X179750000Y-124600000D01*
X163301700Y-79182200D02*
X163301700Y-82600000D01*
X199000000Y-46000000D02*
X201281700Y-46000000D01*
X201281700Y-72500000D02*
X201281700Y-124600000D01*
%TO.N,Net-(B1-B)*%
X178000000Y-85498300D02*
X175101700Y-82600000D01*
X178000000Y-138000000D02*
X178000000Y-85498300D01*
X174400000Y-82600000D02*
X175101700Y-82600000D01*
%TO.N,Net-(KS1-Pin_1)*%
X167700000Y-85900000D02*
X167700000Y-119000000D01*
%TO.N,Net-(KS1-Pin_8)*%
X175101700Y-83400000D02*
X175101700Y-83795500D01*
X175101700Y-83795500D02*
X175306200Y-84000000D01*
X174400000Y-83400000D02*
X175101700Y-83400000D01*
%TO.N,Net-(KS1-Pin_3)*%
X169300000Y-85900000D02*
X169300000Y-109000000D01*
%TO.N,Net-(KS1-Pin_4)*%
X170100000Y-85900000D02*
X170100000Y-100860600D01*
%TO.N,Net-(KS1-Pin_5)*%
X173300000Y-85900000D02*
X173300000Y-99000000D01*
%TO.N,Net-(KS1-Pin_6)*%
X175168100Y-85066400D02*
X175339100Y-85066400D01*
X175101700Y-85000000D02*
X175168100Y-85066400D01*
X174400000Y-85000000D02*
X175101700Y-85000000D01*
%TO.N,Net-(KS1-Pin_2)*%
X168500000Y-85900000D02*
X168500000Y-114000000D01*
%TO.N,Net-(KS1-Pin_7)*%
X174400000Y-84200000D02*
X173516000Y-84200000D01*
X173516000Y-84200000D02*
X173495400Y-84220600D01*
%TO.N,Net-(LS1-Pin_4)*%
X173698300Y-81000000D02*
X173484300Y-80786000D01*
X174400000Y-81000000D02*
X173698300Y-81000000D01*
X195437300Y-56000000D02*
X195437300Y-80543900D01*
X173484300Y-80786000D02*
X173484300Y-80543900D01*
%TO.N,Net-(LS1-Pin_3)*%
X196350200Y-77131900D02*
X196350200Y-77300000D01*
X175327100Y-79898100D02*
X175101700Y-80123500D01*
X196350200Y-77300000D02*
X196316600Y-77333600D01*
X196264900Y-77046600D02*
X196350200Y-77131900D01*
X196264900Y-51226200D02*
X196264900Y-77046600D01*
X175101700Y-80123500D02*
X175101700Y-80200000D01*
X196038700Y-51000000D02*
X196264900Y-51226200D01*
X196316600Y-77333600D02*
X196316600Y-79942200D01*
X174400000Y-80200000D02*
X175101700Y-80200000D01*
%TO.N,Net-(RV1-Pad1)*%
X157850000Y-130175000D02*
X157850000Y-135400000D01*
%TO.N,Net-(U1-IO9)*%
X172500000Y-85900000D02*
X172500000Y-85198300D01*
X172650000Y-85048300D02*
X172500000Y-85198300D01*
X172650000Y-77429800D02*
X172650000Y-85048300D01*
%TO.N,Net-(U1-IO8)*%
X171700000Y-78419900D02*
X171741100Y-78378800D01*
X171700000Y-85900000D02*
X171700000Y-78419900D01*
%TD*%
M02*
