%TF.GenerationSoftware,KiCad,Pcbnew,8.0.8*%
%TF.CreationDate,2025-02-08T14:15:15-05:00*%
%TF.ProjectId,Project_PCB_Subsystem,50726f6a-6563-4745-9f50-43425f537562,rev?*%
%TF.SameCoordinates,Original*%
%TF.FileFunction,Soldermask,Top*%
%TF.FilePolarity,Negative*%
%FSLAX46Y46*%
G04 Gerber Fmt 4.6, Leading zero omitted, Abs format (unit mm)*
G04 Created by KiCad (PCBNEW 8.0.8) date 2025-02-08 14:15:15*
%MOMM*%
%LPD*%
G01*
G04 APERTURE LIST*
G04 Aperture macros list*
%AMRoundRect*
0 Rectangle with rounded corners*
0 $1 Rounding radius*
0 $2 $3 $4 $5 $6 $7 $8 $9 X,Y pos of 4 corners*
0 Add a 4 corners polygon primitive as box body*
4,1,4,$2,$3,$4,$5,$6,$7,$8,$9,$2,$3,0*
0 Add four circle primitives for the rounded corners*
1,1,$1+$1,$2,$3*
1,1,$1+$1,$4,$5*
1,1,$1+$1,$6,$7*
1,1,$1+$1,$8,$9*
0 Add four rect primitives between the rounded corners*
20,1,$1+$1,$2,$3,$4,$5,0*
20,1,$1+$1,$4,$5,$6,$7,0*
20,1,$1+$1,$6,$7,$8,$9,0*
20,1,$1+$1,$8,$9,$2,$3,0*%
%AMOutline5P*
0 Free polygon, 5 corners , with rotation*
0 The origin of the aperture is its center*
0 number of corners: always 5*
0 $1 to $10 corner X, Y*
0 $11 Rotation angle, in degrees counterclockwise*
0 create outline with 5 corners*
4,1,5,$1,$2,$3,$4,$5,$6,$7,$8,$9,$10,$1,$2,$11*%
%AMOutline6P*
0 Free polygon, 6 corners , with rotation*
0 The origin of the aperture is its center*
0 number of corners: always 6*
0 $1 to $12 corner X, Y*
0 $13 Rotation angle, in degrees counterclockwise*
0 create outline with 6 corners*
4,1,6,$1,$2,$3,$4,$5,$6,$7,$8,$9,$10,$11,$12,$1,$2,$13*%
%AMOutline7P*
0 Free polygon, 7 corners , with rotation*
0 The origin of the aperture is its center*
0 number of corners: always 7*
0 $1 to $14 corner X, Y*
0 $15 Rotation angle, in degrees counterclockwise*
0 create outline with 7 corners*
4,1,7,$1,$2,$3,$4,$5,$6,$7,$8,$9,$10,$11,$12,$13,$14,$1,$2,$15*%
%AMOutline8P*
0 Free polygon, 8 corners , with rotation*
0 The origin of the aperture is its center*
0 number of corners: always 8*
0 $1 to $16 corner X, Y*
0 $17 Rotation angle, in degrees counterclockwise*
0 create outline with 8 corners*
4,1,8,$1,$2,$3,$4,$5,$6,$7,$8,$9,$10,$11,$12,$13,$14,$15,$16,$1,$2,$17*%
G04 Aperture macros list end*
%ADD10R,0.800000X0.400000*%
%ADD11R,0.400000X0.800000*%
%ADD12Outline5P,-0.725000X0.130500X-0.130500X0.725000X0.725000X0.725000X0.725000X-0.725000X-0.725000X-0.725000X0.000000*%
%ADD13R,1.450000X1.450000*%
%ADD14R,0.700000X0.700000*%
%ADD15R,2.000000X2.500000*%
%ADD16RoundRect,0.250000X0.250000X0.550000X-0.250000X0.550000X-0.250000X-0.550000X0.250000X-0.550000X0*%
%ADD17RoundRect,0.250001X1.149999X-1.149999X1.149999X1.149999X-1.149999X1.149999X-1.149999X-1.149999X0*%
%ADD18C,2.800000*%
%ADD19R,3.960000X1.980000*%
%ADD20O,3.960000X1.980000*%
%ADD21R,2.300000X2.000000*%
%ADD22C,2.300000*%
%ADD23C,3.200000*%
G04 APERTURE END LIST*
D10*
%TO.C,U1*%
X162600000Y-77000000D03*
X162600000Y-77800000D03*
X162600000Y-78600000D03*
X162600000Y-79400000D03*
X162600000Y-80200000D03*
X162600000Y-81000000D03*
X162600000Y-81800000D03*
X162600000Y-82600000D03*
X162600000Y-83400000D03*
X162600000Y-84200000D03*
X162600000Y-85000000D03*
D11*
X163700000Y-85900000D03*
X164500000Y-85900000D03*
X165300000Y-85900000D03*
X166100000Y-85900000D03*
X166900000Y-85900000D03*
X167700000Y-85900000D03*
X168500000Y-85900000D03*
X169300000Y-85900000D03*
X170100000Y-85900000D03*
X170900000Y-85900000D03*
X171700000Y-85900000D03*
X172500000Y-85900000D03*
X173300000Y-85900000D03*
D10*
X174400000Y-85000000D03*
X174400000Y-84200000D03*
X174400000Y-83400000D03*
X174400000Y-82600000D03*
X174400000Y-81800000D03*
X174400000Y-81000000D03*
X174400000Y-80200000D03*
X174400000Y-79400000D03*
X174400000Y-78600000D03*
X174400000Y-77800000D03*
X174400000Y-77000000D03*
D11*
X173300000Y-76100000D03*
X172500000Y-76100000D03*
X171700000Y-76100000D03*
X170900000Y-76100000D03*
X170100000Y-76100000D03*
X169300000Y-76100000D03*
X168500000Y-76100000D03*
X167700000Y-76100000D03*
X166900000Y-76100000D03*
X166100000Y-76100000D03*
X165300000Y-76100000D03*
X164500000Y-76100000D03*
X163700000Y-76100000D03*
D12*
X166525000Y-79025000D03*
D13*
X166525000Y-81000000D03*
X166525000Y-82975000D03*
X168500000Y-79025000D03*
X168500000Y-81000000D03*
X168500000Y-82975000D03*
X170475000Y-79025000D03*
X170475000Y-81000000D03*
X170475000Y-82975000D03*
D14*
X174450000Y-76050000D03*
X174450000Y-85950000D03*
X162550000Y-85950000D03*
X162550000Y-76050000D03*
%TD*%
D15*
%TO.C,RV1*%
X157850000Y-130175000D03*
X160000000Y-138825000D03*
X162150000Y-130175000D03*
%TD*%
D16*
%TO.C,B1*%
X179750000Y-135700000D03*
X178000000Y-138000000D03*
X176250000Y-135700000D03*
%TD*%
D17*
%TO.C,KS1*%
X199000000Y-119000000D03*
D18*
X199000000Y-114000000D03*
X199000000Y-109000000D03*
X199000000Y-104000000D03*
X199000000Y-99000000D03*
X199000000Y-94000000D03*
X199000000Y-89000000D03*
X199000000Y-84000000D03*
%TD*%
D19*
%TO.C,LS1*%
X199000000Y-41000000D03*
D20*
X199000000Y-46000000D03*
X199000000Y-51000000D03*
X199000000Y-56000000D03*
%TD*%
D21*
%TO.C,PS1*%
X183500000Y-48982500D03*
D22*
X183500000Y-33782500D03*
X155500000Y-48982500D03*
X155500000Y-41382500D03*
%TD*%
D19*
%TO.C,US1*%
X199000000Y-62500000D03*
D20*
X199000000Y-67500000D03*
X199000000Y-72500000D03*
X199000000Y-77500000D03*
%TD*%
D23*
%TO.C,MS2*%
X139000000Y-85000000D03*
X139000000Y-72500000D03*
X139000000Y-60000000D03*
%TD*%
%TO.C,MS1*%
X139000000Y-130000000D03*
X139000000Y-117500000D03*
X139000000Y-105000000D03*
%TD*%
M02*
